<mxfile host="app.diagrams.net" modified="2021-02-02T05:32:58.546Z" agent="5.0 (Windows NT 10.0; Win64; x64) AppleWebKit/537.36 (KHTML, like Gecko) Chrome/88.0.4324.104 Safari/537.36" etag="zEIBro5eDkQ5cJwo8J_A" version="14.2.9" type="github" pages="2">
  <diagram id="zgsMftsqSRshbJQvOkEi" name="Page-1">
    <mxGraphModel dx="2031" dy="1103" grid="1" gridSize="10" guides="1" tooltips="1" connect="1" arrows="1" fold="1" page="1" pageScale="1" pageWidth="1600" pageHeight="900" math="0" shadow="0">
      <root>
        <mxCell id="0" />
        <mxCell id="1" parent="0" />
        <mxCell id="jj8-7WghC6yie8joaFyG-1" value="" style="edgeStyle=orthogonalEdgeStyle;rounded=1;sketch=0;orthogonalLoop=1;jettySize=auto;html=1;shadow=0;fontFamily=JetBrains Mono;fontSource=https%3A%2F%2Ffonts.googleapis.com%2Fcss%3Ffamily%3DJetBrains%2BMono;fontSize=14;fontColor=#333333;shape=flexArrow;fillColor=#f5f5f5;strokeColor=#666666;width=12;endSize=6;" edge="1" parent="1" source="jj8-7WghC6yie8joaFyG-2" target="jj8-7WghC6yie8joaFyG-4">
          <mxGeometry relative="1" as="geometry">
            <Array as="points">
              <mxPoint x="545" y="430" />
              <mxPoint x="545" y="430" />
            </Array>
          </mxGeometry>
        </mxCell>
        <mxCell id="jj8-7WghC6yie8joaFyG-2" value="&lt;font color=&quot;#333333&quot;&gt;&lt;font style=&quot;font-size: 16px&quot;&gt;工作区&lt;br&gt;workspace&lt;/font&gt;&lt;/font&gt;" style="rounded=0;whiteSpace=wrap;html=1;fillColor=#dae8fc;strokeColor=#6c8ebf;fontFamily=JetBrains Mono;fontSource=https%3A%2F%2Ffonts.googleapis.com%2Fcss%3Ffamily%3DJetBrains%2BMono;sketch=0;" vertex="1" parent="1">
          <mxGeometry x="405" y="370" width="100" height="120" as="geometry" />
        </mxCell>
        <mxCell id="jj8-7WghC6yie8joaFyG-3" value="" style="edgeStyle=orthogonalEdgeStyle;shape=flexArrow;rounded=1;sketch=0;orthogonalLoop=1;jettySize=auto;html=1;shadow=0;fontFamily=JetBrains Mono;fontSource=https%3A%2F%2Ffonts.googleapis.com%2Fcss%3Ffamily%3DJetBrains%2BMono;fontSize=13;fontColor=#333333;strokeColor=#666666;fillColor=#f5f5f5;" edge="1" parent="1" source="jj8-7WghC6yie8joaFyG-4" target="jj8-7WghC6yie8joaFyG-6">
          <mxGeometry relative="1" as="geometry" />
        </mxCell>
        <mxCell id="jj8-7WghC6yie8joaFyG-4" value="&lt;font color=&quot;#333333&quot;&gt;&lt;font style=&quot;font-size: 16px&quot;&gt;暂存区&lt;br&gt;&lt;/font&gt;&lt;span style=&quot;font-size: 16px&quot;&gt;staging area&lt;/span&gt;&lt;/font&gt;" style="rounded=0;whiteSpace=wrap;html=1;fillColor=#d5e8d4;strokeColor=#82b366;fontFamily=JetBrains Mono;fontSource=https%3A%2F%2Ffonts.googleapis.com%2Fcss%3Ffamily%3DJetBrains%2BMono;" vertex="1" parent="1">
          <mxGeometry x="585" y="370" width="100" height="120" as="geometry" />
        </mxCell>
        <mxCell id="jj8-7WghC6yie8joaFyG-5" style="edgeStyle=orthogonalEdgeStyle;shape=flexArrow;rounded=1;sketch=0;orthogonalLoop=1;jettySize=auto;html=1;exitX=0.5;exitY=0;exitDx=0;exitDy=0;entryX=0.5;entryY=0;entryDx=0;entryDy=0;shadow=0;fontFamily=JetBrains Mono;fontSource=https%3A%2F%2Ffonts.googleapis.com%2Fcss%3Ffamily%3DJetBrains%2BMono;fontSize=13;fontColor=#333333;strokeColor=#666666;fillColor=#f5f5f5;" edge="1" parent="1" source="jj8-7WghC6yie8joaFyG-6" target="jj8-7WghC6yie8joaFyG-11">
          <mxGeometry relative="1" as="geometry">
            <Array as="points">
              <mxPoint x="823" y="330" />
              <mxPoint x="1135" y="330" />
            </Array>
          </mxGeometry>
        </mxCell>
        <mxCell id="jj8-7WghC6yie8joaFyG-6" value="&lt;font color=&quot;#333333&quot;&gt;&lt;font style=&quot;font-size: 16px&quot;&gt;本地仓库&lt;br&gt;&lt;/font&gt;&lt;span style=&quot;font-size: 16px&quot;&gt;local repo&lt;/span&gt;&lt;/font&gt;" style="rounded=0;whiteSpace=wrap;html=1;fillColor=#ffe6cc;strokeColor=#d79b00;fontFamily=JetBrains Mono;fontSource=https%3A%2F%2Ffonts.googleapis.com%2Fcss%3Ffamily%3DJetBrains%2BMono;" vertex="1" parent="1">
          <mxGeometry x="775" y="370" width="96" height="120" as="geometry" />
        </mxCell>
        <mxCell id="jj8-7WghC6yie8joaFyG-7" value="" style="edgeStyle=orthogonalEdgeStyle;shape=flexArrow;rounded=1;sketch=0;orthogonalLoop=1;jettySize=auto;html=1;shadow=0;strokeColor=#666666;fontFamily=JetBrains Mono;fontSource=https%3A%2F%2Ffonts.googleapis.com%2Fcss%3Ffamily%3DJetBrains%2BMono;fontSize=13;fontColor=#333333;fillColor=#f5f5f5;width=10;endSize=5.33;exitX=0.5;exitY=1;exitDx=0;exitDy=0;entryX=0.75;entryY=1;entryDx=0;entryDy=0;" edge="1" parent="1" source="jj8-7WghC6yie8joaFyG-8" target="jj8-7WghC6yie8joaFyG-2">
          <mxGeometry relative="1" as="geometry">
            <mxPoint x="435" y="490" as="targetPoint" />
            <Array as="points">
              <mxPoint x="948" y="540" />
              <mxPoint x="480" y="540" />
            </Array>
          </mxGeometry>
        </mxCell>
        <mxCell id="jj8-7WghC6yie8joaFyG-8" value="&lt;font style=&quot;font-size: 16px&quot;&gt;远程仓库副本&lt;br&gt;remote repo copy&lt;br&gt;&lt;/font&gt;" style="rounded=1;whiteSpace=wrap;html=1;fillColor=#fff2cc;strokeColor=#d6b656;fontFamily=JetBrains Mono;fontSource=https%3A%2F%2Ffonts.googleapis.com%2Fcss%3Ffamily%3DJetBrains%2BMono;" vertex="1" parent="1">
          <mxGeometry x="895" y="390" width="106" height="80" as="geometry" />
        </mxCell>
        <mxCell id="jj8-7WghC6yie8joaFyG-9" style="edgeStyle=orthogonalEdgeStyle;shape=flexArrow;rounded=1;sketch=0;orthogonalLoop=1;jettySize=auto;html=1;shadow=0;strokeColor=#666666;fontFamily=JetBrains Mono;fontSource=https%3A%2F%2Ffonts.googleapis.com%2Fcss%3Ffamily%3DJetBrains%2BMono;fontSize=13;fontColor=#333333;fillColor=#f5f5f5;entryX=0.25;entryY=1;entryDx=0;entryDy=0;exitX=0.5;exitY=1;exitDx=0;exitDy=0;" edge="1" parent="1" source="jj8-7WghC6yie8joaFyG-11" target="jj8-7WghC6yie8joaFyG-2">
          <mxGeometry relative="1" as="geometry">
            <mxPoint x="415" y="490" as="targetPoint" />
            <Array as="points">
              <mxPoint x="1135" y="570" />
              <mxPoint x="430" y="570" />
            </Array>
          </mxGeometry>
        </mxCell>
        <mxCell id="jj8-7WghC6yie8joaFyG-10" value="" style="edgeStyle=orthogonalEdgeStyle;shape=flexArrow;rounded=1;sketch=0;orthogonalLoop=1;jettySize=auto;html=1;shadow=0;fontFamily=JetBrains Mono;fontSource=https%3A%2F%2Ffonts.googleapis.com%2Fcss%3Ffamily%3DJetBrains%2BMono;fontSize=13;fontColor=#333333;fillColor=#f5f5f5;strokeColor=#666666;" edge="1" parent="1" source="jj8-7WghC6yie8joaFyG-11" target="jj8-7WghC6yie8joaFyG-8">
          <mxGeometry relative="1" as="geometry" />
        </mxCell>
        <mxCell id="jj8-7WghC6yie8joaFyG-11" value="&lt;font style=&quot;font-size: 16px&quot;&gt;远程仓库&lt;br&gt;remote rep&lt;/font&gt;o" style="ellipse;whiteSpace=wrap;html=1;aspect=fixed;fontFamily=JetBrains Mono;fontSource=https%3A%2F%2Ffonts.googleapis.com%2Fcss%3Ffamily%3DJetBrains%2BMono;fillColor=#f8cecc;strokeColor=#b85450;" vertex="1" parent="1">
          <mxGeometry x="1075" y="370" width="120" height="120" as="geometry" />
        </mxCell>
        <mxCell id="jj8-7WghC6yie8joaFyG-12" value="&lt;font style=&quot;font-size: 13px&quot;&gt;&lt;b style=&quot;font-size: 13px&quot;&gt;git add&amp;nbsp;&lt;/b&gt;&lt;/font&gt;" style="text;html=1;strokeColor=none;fillColor=none;align=center;verticalAlign=middle;whiteSpace=wrap;rounded=0;shadow=0;glass=0;sketch=0;fontFamily=JetBrains Mono;fontSource=https%3A%2F%2Ffonts.googleapis.com%2Fcss%3Ffamily%3DJetBrains%2BMono;fontSize=13;fontColor=#333333;" vertex="1" parent="1">
          <mxGeometry x="512" y="395" width="70" height="20" as="geometry" />
        </mxCell>
        <mxCell id="jj8-7WghC6yie8joaFyG-13" value="&lt;font style=&quot;font-size: 13px&quot;&gt;&lt;b style=&quot;font-size: 13px&quot;&gt;git commit&lt;/b&gt;&lt;/font&gt;" style="text;html=1;strokeColor=none;fillColor=none;align=center;verticalAlign=middle;whiteSpace=wrap;rounded=0;shadow=0;glass=0;sketch=0;fontFamily=JetBrains Mono;fontSource=https%3A%2F%2Ffonts.googleapis.com%2Fcss%3Ffamily%3DJetBrains%2BMono;fontSize=13;fontColor=#333333;" vertex="1" parent="1">
          <mxGeometry x="685" y="395" width="90" height="20" as="geometry" />
        </mxCell>
        <mxCell id="jj8-7WghC6yie8joaFyG-14" value="&lt;font style=&quot;font-size: 13px&quot;&gt;&lt;b style=&quot;font-size: 13px&quot;&gt;git push&lt;/b&gt;&lt;/font&gt;" style="text;html=1;strokeColor=none;fillColor=none;align=center;verticalAlign=middle;whiteSpace=wrap;rounded=0;shadow=0;glass=0;sketch=0;fontFamily=JetBrains Mono;fontSource=https%3A%2F%2Ffonts.googleapis.com%2Fcss%3Ffamily%3DJetBrains%2BMono;fontSize=13;fontColor=#333333;" vertex="1" parent="1">
          <mxGeometry x="955" y="300" width="90" height="20" as="geometry" />
        </mxCell>
        <mxCell id="jj8-7WghC6yie8joaFyG-15" value="&lt;font style=&quot;font-size: 13px&quot;&gt;&lt;b style=&quot;font-size: 13px&quot;&gt;git pull（git fetch + git merge）&lt;br&gt;&lt;/b&gt;&lt;/font&gt;" style="text;html=1;strokeColor=none;fillColor=none;align=center;verticalAlign=middle;whiteSpace=wrap;rounded=0;shadow=0;glass=0;sketch=0;fontFamily=JetBrains Mono;fontSource=https%3A%2F%2Ffonts.googleapis.com%2Fcss%3Ffamily%3DJetBrains%2BMono;fontSize=13;fontColor=#333333;" vertex="1" parent="1">
          <mxGeometry x="545" y="580" width="380" height="20" as="geometry" />
        </mxCell>
        <mxCell id="jj8-7WghC6yie8joaFyG-16" value="&lt;font style=&quot;font-size: 13px&quot;&gt;&lt;b style=&quot;font-size: 13px&quot;&gt;git fetch&lt;/b&gt;&lt;/font&gt;" style="text;html=1;strokeColor=none;fillColor=none;align=center;verticalAlign=middle;whiteSpace=wrap;rounded=0;shadow=0;glass=0;sketch=0;fontFamily=JetBrains Mono;fontSource=https%3A%2F%2Ffonts.googleapis.com%2Fcss%3Ffamily%3DJetBrains%2BMono;fontSize=13;fontColor=#333333;" vertex="1" parent="1">
          <mxGeometry x="995" y="395" width="90" height="20" as="geometry" />
        </mxCell>
        <mxCell id="jj8-7WghC6yie8joaFyG-17" value="&lt;font style=&quot;font-size: 13px&quot;&gt;&lt;b style=&quot;font-size: 13px&quot;&gt;git merge&lt;/b&gt;&lt;/font&gt;" style="text;html=1;strokeColor=none;fillColor=none;align=center;verticalAlign=middle;whiteSpace=wrap;rounded=0;shadow=0;glass=0;sketch=0;fontFamily=JetBrains Mono;fontSource=https%3A%2F%2Ffonts.googleapis.com%2Fcss%3Ffamily%3DJetBrains%2BMono;fontSize=13;fontColor=#333333;" vertex="1" parent="1">
          <mxGeometry x="665" y="510" width="90" height="20" as="geometry" />
        </mxCell>
      </root>
    </mxGraphModel>
  </diagram>
  <diagram id="lCjPQtKsdGo0Abre5hAt" name="Page-2">
    <mxGraphModel dx="2031" dy="1103" grid="1" gridSize="10" guides="1" tooltips="1" connect="1" arrows="1" fold="1" page="1" pageScale="1" pageWidth="1600" pageHeight="900" math="0" shadow="0">
      <root>
        <mxCell id="GPShky4l1g81z8F7b6V--0" />
        <mxCell id="GPShky4l1g81z8F7b6V--1" parent="GPShky4l1g81z8F7b6V--0" />
      </root>
    </mxGraphModel>
  </diagram>
</mxfile>
